PathFileType	4	(X/Y/Z)	/Users/itak/Documents/Research/Walk-IL/dataset/trc/00252_00009.trc
DataRate	CameraRate	NumFrames	NumMarkers	Units	OrigDataRate	OrigDataStartFrame	OrigNumFrames
100.000000	100.000000	4	53	mm	100.000000	361	482
Frame#	Time	RPSI			LPSI			L3			STRN			T10			C7			CLAV			RBAK			LBAK			LSHO			LUPA			LAEL			LAOL			LWTS			LWPS			LFRA			LIFD			LHPS			LHTS			RSHO			RUPA			RAEL			RAOL			RWTS			RWPS			RFRA			RIFD			RHTS			RHPS			RBHD			LFHD			RFHD			LBHD			LHIP			RHIP			RASI			LASI			LKNE			LTHI			LANK			LTIP			LTOE			LMT1			LMT5			LHEE			RKNE			RTHI			RANK			RTIP			RTOE			RMT1			RMT5			RHEE			
		X1	Y1	Z1	X2	Y2	Z2	X3	Y3	Z3	X4	Y4	Z4	X5	Y5	Z5	X6	Y6	Z6	X7	Y7	Z7	X8	Y8	Z8	X9	Y9	Z9	X10	Y10	Z10	X11	Y11	Z11	X12	Y12	Z12	X13	Y13	Z13	X14	Y14	Z14	X15	Y15	Z15	X16	Y16	Z16	X17	Y17	Z17	X18	Y18	Z18	X19	Y19	Z19	X20	Y20	Z20	X21	Y21	Z21	X22	Y22	Z22	X23	Y23	Z23	X24	Y24	Z24	X25	Y25	Z25	X26	Y26	Z26	X27	Y27	Z27	X28	Y28	Z28	X29	Y29	Z29	X30	Y30	Z30	X31	Y31	Z31	X32	Y32	Z32	X33	Y33	Z33	X34	Y34	Z34	X35	Y35	Z35	X36	Y36	Z36	X37	Y37	Z37	X38	Y38	Z38	X39	Y39	Z39	X40	Y40	Z40	X41	Y41	Z41	X42	Y42	Z42	X43	Y43	Z43	X44	Y44	Z44	X45	Y45	Z45	X46	Y46	Z46	X47	Y47	Z47	X48	Y48	Z48	X49	Y49	Z49	X50	Y50	Z50	X51	Y51	Z51	X52	Y52	Z52	X53	Y53	Z53	

362	3.61	-152.7269439697266	1024.3642578125	492.4159851074219	-35.88892364501953	1029.0390625	464.3458251953125	-80.52602386474609	1110.796752929688	464.4248352050781	-27.77231597900391	1314.017700195312	701.38671875	-91.84009552001953	1236.747680664062	459.6356201171875	-83.49773406982422	1502.612182617188	503.0600280761719	-40.94981002807617	1429.796142578125	669.8365478515625	-164.9914398193359	1354.734619140625	457.7704162597656	19.32717895507812	1466.4365234375	459.0582885742188	96.43487548828125	1473.61328125	529.8378295898438	163.0969848632812	1355.974487304688	474.3833618164062	191.2365875244141	1148.021606445312	459.0320129394531	118.3326568603516	1134.35986328125	411.1612854003906	177.5648498535156	908.337890625	552.25927734375	240.6137542724609	895.9945068359375	496.6088562011719	213.6431121826172	1040.685180664062	467.1198425292969	167.6799468994141	720.7875366210938	520.2113037109375	238.3304595947266	805.2861938476562	502.0232849121094	205.2027740478516	802.1679077148438	561.6552734375	-233.5234069824219	1462.21337890625	600.9412841796875	-301.7334899902344	1397.135009765625	599.4409790039062	-348.2285461425781	1117.46826171875	589.391845703125	-264.1446533203125	1108.447021484375	545.1915283203125	-285.9226989746094	912.281005859375	732.2763671875	-357.267578125	894.5128173828125	689.196533203125	-356.5625305175781	1050.570556640625	621.25390625	-276.3312072753906	719.4413452148438	756.6122436523438	-294.200439453125	793.4681396484375	779.2621459960938	-351.0230712890625	790.0241088867188	734.077880859375	-132.8739776611328	1659.546508789062	542.3239135742188	-9.321545600891113	1718.74462890625	724.2020874023438	-107.5906829833984	1710.084228515625	740.61865234375	4.773058891296387	1678.835571289062	564.7962646484375	126.7852325439453	974.0197143554688	531.8147583007812	-228.8220672607422	993.1285400390625	617.8551635742188	-171.4924163818359	1039.86279296875	697.754638671875	103.1311340332031	1024.968017578125	637.4503784179688	138.1709747314453	490.49462890625	606.417724609375	145.9538269042969	636.7569580078125	591.5188598632812	-30.75485992431641	166.6990203857422	270.3406982421875	68.41761779785156	334.8743591308594	447.6669006347656	-28.39458465576172	36.13997650146484	438.4906005859375	-84.81449890136719	80.38177490234375	407.666259765625	7.131050586700439	68.73810577392578	341.2352294921875	-85.64944458007812	222.5310974121094	259.1966247558594	-138.6336822509766	516.931640625	731.8284301757812	-206.9560852050781	779.455810546875	707.5430297851562	-80.55362701416016	33.66613388061523	665.1036376953125	-110.5978698730469	396.9321899414062	741.7493286132812	-20.50473785400391	43.62356185913086	874.2236328125	18.20090866088867	42.13487243652344	813.3342895507812	-97.25843811035156	37.18146514892578	776.3735961914062	-27.1451530456543	33.43152618408203	599.2615966796875	
363	3.62	-151.0203552246094	1024.994262695312	496.2236328125	-34.08395004272461	1029.3427734375	468.4019165039062	-79.04701995849609	1111.402099609375	468.6465759277344	-26.50796699523926	1314.16650390625	706.10400390625	-90.44609069824219	1237.345458984375	464.2960815429688	-82.19216156005859	1503.152709960938	508.0339965820312	-39.64310455322266	1429.9873046875	674.7061157226562	-163.8902130126953	1355.349853515625	462.5860900878906	20.50548934936523	1466.950439453125	464.0114440917969	97.77466583251953	1474.002685546875	534.6427612304688	163.9672546386719	1356.325561523438	478.5149536132812	191.4452209472656	1148.634521484375	461.4335327148438	117.6462478637695	1135.250610351562	414.8439636230469	180.1050872802734	907.0779418945312	550.3240356445312	241.9735260009766	896.0376586914062	492.9616394042969	214.1553955078125	1041.287719726562	467.2128601074219	169.2968597412109	720.4954833984375	514.1036376953125	239.7996673583984	805.2225952148438	496.3996276855469	208.1361236572266	800.7356567382812	556.73193359375	-232.2416076660156	1462.667846679688	605.9638671875	-300.5137939453125	1397.665161132812	604.493896484375	-347.3032531738281	1117.95556640625	594.646728515625	-263.2446899414062	1108.79638671875	550.3463745117188	-284.214599609375	914.0234985351562	738.9176635742188	-355.4176025390625	895.4978637695312	695.9788818359375	-355.5540466308594	1051.129272460938	626.901123046875	-273.8211669921875	721.605712890625	765.5802612304688	-292.0589294433594	795.768798828125	787.2390747070312	-348.8397521972656	791.5849609375	742.0079345703125	-131.3326873779297	1659.772094726562	546.97216796875	-8.248475074768066	1719.226318359375	729.1091918945312	-106.622314453125	1710.570190429688	745.1978149414062	6.240997314453125	1679.031127929688	569.80029296875	128.0046997070312	974.0527954101562	536.3483276367188	-227.5967559814453	993.566162109375	621.4042358398438	-170.4983367919922	1040.160766601562	701.6036987304688	104.1920852661133	1025.183959960938	642.0662841796875	142.6446228027344	491.2675476074219	616.1275634765625	149.3855285644531	637.4868774414062	599.6637573242188	-24.79722213745117	169.0772247314453	278.0179443359375	73.83949279785156	335.9716186523438	456.7210083007812	-20.31160163879395	38.04751968383789	446.6820373535156	-77.15214538574219	82.62471771240234	415.8748474121094	14.50751876831055	72.06383514404297	349.1877746582031	-80.23850250244141	224.2593994140625	266.6873168945312	-138.1238098144531	516.8604736328125	733.5977783203125	-206.0481414794922	779.6046752929688	710.3328247070312	-80.50533294677734	33.69168853759766	665.11328125	-110.2157135009766	396.7473754882812	743.0806884765625	-20.49648094177246	43.58844757080078	874.2670288085938	18.18140411376953	42.12091445922852	813.3556518554688	-97.26114654541016	37.15983200073242	776.3768310546875	-27.08780097961426	33.50529479980469	599.2471923828125	
364	3.63	-149.3304138183594	1025.607055664062	499.8454895019531	-32.30273818969727	1029.661010742188	472.2793579101562	-77.60990142822266	1112.044921875	472.6851501464844	-25.19533157348633	1314.329467773438	710.6427001953125	-89.07876586914062	1237.971313476562	468.7775268554688	-80.94771575927734	1503.67578125	512.9637451171875	-38.31129455566406	1430.198852539062	679.4143676757812	-162.8706512451172	1356.003784179688	467.2686157226562	21.63951683044434	1467.491577148438	468.7823181152344	99.08933258056641	1474.423828125	539.2537841796875	164.8265686035156	1356.719970703125	482.5051574707031	191.7420349121094	1149.30029296875	463.873291015625	117.1153106689453	1136.102783203125	418.5404052734375	182.6681518554688	906.0355224609375	548.5718383789062	243.4012145996094	896.3307495117188	489.65087890625	214.7620697021484	1042.004760742188	467.4869689941406	171.0447540283203	720.5048217773438	508.4090576171875	241.4034576416016	805.4656982421875	491.2103271484375	211.1491546630859	799.6295776367188	552.1372680664062	-230.9445037841797	1463.135864257812	610.928466796875	-299.2695007324219	1398.197509765625	609.5189208984375	-346.3600463867188	1118.44970703125	599.8700561523438	-262.3469543457031	1109.154174804688	555.4232788085938	-282.4285278320312	915.740234375	745.4296264648438	-353.5316772460938	896.494384765625	702.6972045898438	-354.5472106933594	1051.709228515625	632.5221557617188	-271.2747192382812	723.7366943359375	774.263427734375	-289.83642578125	798.0326538085938	795.0244750976562	-346.6277770996094	793.164794921875	749.8112182617188	-129.7729797363281	1660.036010742188	551.5516967773438	-7.113286018371582	1719.676025390625	733.9186401367188	-105.5640563964844	1711.046142578125	749.72412109375	7.726320743560791	1679.234497070312	574.6950073242188	129.2454071044922	974.1141967773438	540.6434936523438	-226.3419342041016	994.0025024414062	624.790283203125	-169.4629821777344	1040.515991210938	705.2374267578125	105.2490768432617	1025.448120117188	646.486572265625	146.8625793457031	492.1988525390625	625.6345825195312	152.6647644042969	638.313720703125	607.5541381835938	-18.45668983459473	170.5344696044922	286.2893676757812	79.23812866210938	336.884765625	465.7922973632812	-11.63847541809082	40.21992111206055	456.0300903320312	-68.97066497802734	84.33877563476562	424.9667053222656	22.69462776184082	75.0625	358.217529296875	-74.68529510498047	224.8081207275391	274.5149841308594	-137.6214447021484	516.8125	735.1935424804688	-205.1859741210938	779.7590942382812	712.9259643554688	-80.45174407958984	33.71552276611328	665.12353515625	-109.8231430053711	396.58935546875	744.2760009765625	-20.49119567871094	43.56331634521484	874.3001708984375	18.16592216491699	42.10881805419922	813.37353515625	-97.26461791992188	37.14104080200195	776.3788452148438	-27.03109359741211	33.56703567504883	599.2310180664062	
365	3.64	-147.6591644287109	1026.21826171875	503.2917785644531	-30.54587936401367	1030.012329101562	475.9939575195312	-76.20979309082031	1112.730346679688	476.5528564453125	-23.84247016906738	1314.522705078125	715.004150390625	-87.74349975585938	1238.628173828125	473.0768127441406	-79.75863647460938	1504.189575195312	517.8367919921875	-36.94826889038086	1430.446533203125	683.9597778320312	-161.91552734375	1356.6982421875	471.8198547363281	22.73399543762207	1468.065063476562	473.3668518066406	100.378776550293	1474.890869140625	543.6694946289062	165.6851501464844	1357.17529296875	486.3500671386719	192.1359710693359	1150.031860351562	466.3424682617188	116.756591796875	1136.938720703125	422.22119140625	185.2433166503906	905.2295532226562	547.0453491210938	244.8982238769531	896.868896484375	486.7305603027344	215.4671783447266	1042.837890625	467.9479675292969	172.9086456298828	720.8033447265625	503.1715393066406	243.1290893554688	806.0014038085938	486.5039978027344	214.1957855224609	798.84375	547.9223022460938	-229.6232147216797	1463.62841796875	615.8226928710938	-297.9997863769531	1398.744140625	614.5006103515625	-345.3893737792969	1118.960693359375	605.0633544921875	-261.4423217773438	1109.530395507812	560.4249877929688	-280.5747985839844	917.4277954101562	751.8016967773438	-351.6151123046875	897.5092163085938	709.3341674804688	-353.52197265625	1052.322509765625	638.1195678710938	-268.6968688964844	725.8252563476562	782.6336059570312	-287.546142578125	800.248046875	802.59228515625	-344.3858337402344	794.7466430664062	757.453857421875	-128.2011260986328	1660.34228515625	556.0565185546875	-5.925220489501953	1720.103637695312	738.6253051757812	-104.425537109375	1711.520874023438	754.1942138671875	9.226408958435059	1679.461669921875	579.4754638671875	130.5693206787109	974.2655639648438	544.79541015625	-225.0792999267578	994.4447631835938	628.009521484375	-168.4122924804688	1040.916870117188	708.6600952148438	106.2911376953125	1025.772338867188	650.72998046875	150.8238677978516	493.2871704101562	634.9110717773438	155.7965698242188	639.2366333007812	615.1779174804688	-11.68650913238525	171.0320587158203	295.160888671875	84.62517547607422	337.6002197265625	474.8896179199219	-2.596986055374146	42.47412109375	466.4643859863281	-60.46358489990234	85.50276947021484	434.8791198730469	31.49108695983887	77.56782531738281	368.293212890625	-68.85701751708984	224.1969604492188	282.6655578613281	-137.1351013183594	516.78662109375	736.5894165039062	-204.3658599853516	779.9226684570312	715.3189697265625	-80.39217376708984	33.73781967163086	665.1333618164062	-109.4311218261719	396.4601135253906	745.3047485351562	-20.48910140991211	43.5475959777832	874.3238525390625	18.15464210510254	42.09728622436523	813.3880615234375	-97.26907348632812	37.12612152099609	776.3783569335938	-26.97576713562012	33.61312103271484	599.21435546875	
